 <svg version="1.0" xmlns="http://www.w3.org/2000/svg" width="700.000000pt" height="632.000000pt" viewBox="0 0 700.000000 632.000000" preserveAspectRatio="xMidYMid meet">
<metadata>
Created by potrace 1.12, written by Peter Selinger 2001-2015
</metadata>
<g transform="translate(0.000000,632.000000) scale(0.100000,-0.100000)" fill="#000000" stroke="none">
<path d="M3260 5510 c-91 -37 -176 -72 -190 -78 -14 -6 -77 -31 -140 -57 -63
-25 -124 -50 -135 -55 -11 -4 -56 -22 -100 -40 -44 -17 -89 -35 -100 -40 -11
-5 -56 -23 -100 -40 -44 -18 -89 -36 -100 -40 -11 -5 -72 -30 -135 -55 -63
-26 -124 -51 -135 -56 -30 -13 -394 -159 -445 -179 -50 -19 -414 -166 -445
-179 -11 -5 -72 -30 -135 -55 -63 -26 -123 -51 -132 -56 -10 -6 -31 -10 -48
-10 -41 0 -39 -24 4 -44 19 -9 39 -16 45 -16 6 0 19 -4 29 -10 22 -12 55 -25
237 -98 141 -56 181 -73 230 -93 11 -4 56 -22 100 -39 44 -18 89 -36 100 -41
38 -16 200 -82 245 -99 46 -17 409 -164 445 -179 23 -10 63 -26 285 -115 91
-37 174 -71 185 -75 11 -5 56 -23 100 -41 44 -18 89 -36 100 -41 11 -4 56 -22
100 -39 44 -18 89 -36 100 -41 179 -78 222 -87 275 -58 8 5 67 29 130 55 63
25 124 50 135 54 11 5 72 30 135 55 63 26 124 51 135 55 11 5 56 23 100 40 44
18 89 36 100 40 11 5 43 18 70 30 28 12 59 25 70 30 11 4 72 29 135 55 63 25
124 50 135 54 11 5 81 34 155 64 130 53 243 99 545 222 77 31 149 61 160 65
11 5 72 30 135 55 63 26 129 53 145 60 17 7 53 20 80 30 58 21 97 52 74 58
-41 12 -97 31 -124 42 -16 8 -82 34 -145 60 -104 43 -142 58 -205 85 -11 4
-72 29 -135 55 -63 25 -124 50 -135 54 -11 5 -83 35 -160 66 -77 31 -201 82
-275 112 -74 30 -144 59 -155 63 -11 5 -72 30 -135 55 -63 26 -124 51 -135 55
-11 5 -87 36 -170 70 -82 34 -159 65 -170 70 -11 4 -72 29 -135 55 -63 25
-124 50 -135 55 -11 4 -72 29 -135 54 -63 26 -123 51 -132 56 -23 13 -10 17
-198 -60z"></path>
<path d="M824 4363 c-6 -18 -9 -25 -42 -103 -11 -25 -47 -108 -80 -185 -83
-194 -120 -277 -133 -298 -6 -11 -9 -20 -7 -22 2 -2 55 -27 118 -55 63 -28
148 -67 188 -86 40 -19 75 -34 77 -34 2 0 36 -15 77 -34 40 -18 96 -44 123
-56 90 -41 269 -121 333 -151 35 -16 65 -29 67 -29 2 0 32 -13 67 -29 55 -25
238 -108 323 -146 17 -8 115 -52 218 -99 104 -48 190 -86 192 -86 2 0 39 -16
82 -36 43 -20 106 -49 141 -65 35 -16 65 -29 67 -29 2 0 48 -20 102 -45 54
-25 107 -50 118 -55 44 -19 62 -20 77 -3 12 15 126 213 223 388 16 28 39 67
52 87 12 21 23 40 23 43 0 3 12 24 26 46 14 23 22 45 17 49 -4 4 -28 15 -53
24 -25 10 -67 28 -95 41 -27 12 -75 32 -105 45 -30 12 -84 36 -119 52 -35 16
-118 52 -185 79 -66 28 -125 55 -130 60 -6 5 -16 9 -22 9 -7 0 -46 15 -86 34
-40 19 -160 70 -266 115 -105 45 -220 94 -254 110 -35 15 -119 52 -188 81 -69
29 -129 56 -134 61 -6 5 -16 9 -22 9 -7 0 -43 14 -81 31 -37 16 -77 34 -88 39
-11 5 -50 22 -88 39 -37 17 -70 31 -73 31 -3 0 -31 11 -62 26 -101 45 -116 52
-157 69 -22 9 -49 20 -60 25 -11 4 -50 22 -86 39 -76 36 -88 37 -95 14z"></path>
<path d="M5970 4365 c-7 -8 -18 -15 -24 -15 -7 0 -36 -11 -64 -25 -29 -14 -54
-25 -58 -25 -3 0 -29 -11 -57 -24 -29 -13 -97 -42 -152 -66 -55 -23 -118 -50
-140 -60 -110 -49 -134 -59 -185 -80 -30 -13 -77 -33 -105 -45 -27 -12 -99
-44 -160 -69 -60 -26 -124 -54 -141 -61 -16 -8 -97 -43 -180 -78 -182 -79
-224 -97 -245 -107 -8 -4 -51 -22 -95 -40 -43 -18 -107 -45 -142 -61 -34 -16
-64 -29 -66 -29 -3 0 -39 -16 -80 -35 -42 -19 -79 -35 -82 -35 -3 0 -29 -11
-57 -24 -29 -13 -77 -34 -107 -46 -60 -25 -148 -64 -194 -86 -16 -8 -35 -14
-42 -14 -30 0 -20 -27 67 -177 50 -87 105 -182 121 -212 17 -30 52 -92 78
-137 26 -45 50 -89 53 -98 8 -21 29 -20 80 3 23 10 87 39 142 64 55 25 129 58
165 75 36 16 124 55 195 87 72 31 163 72 203 91 40 19 75 34 77 34 3 0 53 23
111 50 58 28 107 50 109 50 2 0 32 13 67 29 35 16 115 52 178 81 63 29 143 65
178 81 35 16 65 29 67 29 2 0 32 13 67 29 35 16 115 52 178 81 63 29 143 65
178 81 35 16 65 29 67 29 2 0 43 18 92 41 48 22 104 48 123 56 71 33 100 48
100 51 0 2 -15 36 -34 75 -19 40 -64 142 -101 227 -143 329 -152 344 -185 305z"></path>
<path d="M775 3488 c-3 -7 -4 -348 -3 -757 3 -649 5 -745 18 -752 8 -5 287
-143 620 -308 333 -164 902 -445 1264 -625 362 -180 660 -325 663 -323 6 6 4
2408 -3 2418 -8 13 -24 1 -24 -19 0 -23 -322 -583 -342 -595 -11 -8 -31 -3
-72 16 -31 15 -58 27 -61 27 -2 0 -41 17 -87 39 -46 21 -103 48 -128 59 -25
11 -92 41 -150 67 -58 26 -138 62 -178 81 -40 19 -74 34 -77 34 -2 0 -43 18
-90 40 -47 22 -88 40 -90 40 -2 0 -43 19 -92 41 -48 23 -106 50 -128 59 -22
10 -75 35 -118 54 -43 20 -80 36 -82 36 -3 0 -91 40 -233 106 -40 19 -74 34
-77 34 -2 0 -32 13 -67 29 -35 16 -110 50 -168 76 -167 75 -254 115 -273 125
-12 8 -19 7 -22 -2z"></path>
<path d="M6030 3480 c-8 -6 -51 -26 -95 -46 -44 -20 -108 -49 -143 -65 -35
-16 -65 -29 -67 -29 -2 0 -38 -16 -79 -35 -42 -19 -110 -51 -152 -70 -41 -19
-77 -35 -79 -35 -2 0 -39 -16 -82 -36 -43 -19 -96 -44 -118 -53 -142 -64 -542
-245 -643 -292 -35 -16 -65 -29 -67 -29 -2 0 -32 -13 -67 -29 -59 -27 -256
-116 -323 -146 -16 -8 -70 -32 -120 -55 -85 -39 -135 -46 -135 -20 0 5 -13 31
-29 57 -37 64 -241 424 -278 492 -16 29 -33 54 -38 55 -10 1 -20 -2395 -11
-2419 2 -6 194 83 427 199 355 175 1732 857 2045 1013 l92 45 7 222 c4 121 6
459 4 751 -4 461 -6 530 -19 532 -8 1 -22 -2 -30 -7z"></path>
</g>
</svg>