<svg xmlns="http://www.w3.org/2000/svg" width="512" height="512" shape-rendering="geometricPrecision" image-rendering="optimizeQuality" fill-rule="evenodd" xmlns:v="https://vecta.io/nano"><style><![CDATA[.B{opacity:.022}.C{fill:#43443f}.D{fill:#444440}.E{fill:#dadada}.F{opacity:.998}.G{opacity:.999}.H{fill:#d9d9d9}.I{opacity:.997}]]></style><path d="M-.5-.5h2a3 3 0 0 1-2 2v-2zm17 0h5c-7 7.667-14.333 15-22 22v-5a204.52 204.52 0 0 0 17-17zm20 0h5a1247.64 1247.64 0 0 1-42 42v-5a968.16 968.16 0 0 0 37-37zm20 0h5a2718.16 2718.16 0 0 1-62 62v-5c19.333-18.667 38.333-37.667 57-57zm20 0h5l-82 82v-5l77-77zm20 0h5l-102 102v-5l97-97zm20 0h5l-122 122v-5l117-117zm20 0h5l-142 142v-5l137-137zm20 0h5l-162 162v-5l157-157zm20 0h5l-182 182v-5l177-177zm20 0h5l-202 202v-5l197-197z" opacity=".021" class="C"/><path d="M216.5-.5h5l-64 65c-.667 0-1 .333-1 1l-10 5 70-71z" class="B D"/><g class="C"><path d="M236.5-.5h5l-50 51a21.16 21.16 0 0 1-7 2l52-53zm20 0h5l-43 44c-.667 0-1 .333-1 1a19.24 19.24 0 0 0-6 1l45-46zm20 0h5l-41 42h-5l41-42zm20 0h5l-40 41h-5l40-41zm20 0h5l-41 42h-5l41-42zm20 0h5l-44 45c-1.459.067-2.792-.266-4-1l43-44zm20 0h5l-48 49c-1.495-.489-2.829-1.155-4-2 16-15.333 31.667-31 47-47z" class="B"/></g><path d="M376.5-.5h5l-52 53c-1.599.268-2.932-.066-4-1l51-52z" class="B D"/><g class="C"><path d="M396.5-.5h5l-58 59c-1.653-.16-2.986-.826-4-2a2298.83 2298.83 0 0 0 57-57zm20 0h5l-65 65c-1.109-.057-2.109-.39-3-1l63-64zm20 0h5l-72 73-3-2 70-71z" class="B"/></g><path d="M456.5-.5h5l-80 81a6.54 6.54 0 0 1-3-3l78-78z" class="B D"/><g class="C"><path d="M476.5-.5h5l-88 89c-1.527.073-2.527-.594-3-2l86-87zm20 0h5l-98 98a3 3 0 0 1-2-2l95-96zm15 6v5l-98 97a3 3 0 0 1-2-2l100-100zm0 20v5l-88 88c-1.333-.667-2.333-1.667-3-3l91-90z" class="B"/></g><path d="M232.5 42.5l-189 189c.342-5.048 1.008-10.048 2-15l1-6c.057-1.109.39-2.109 1-3l161-161c.709-.904 1.709-1.237 3-1a19.24 19.24 0 0 1 6-1c.667 0 1-.333 1-1 4.652-.498 9.319-.831 14-1z" class="E F"/><path fill="#d8d9d9" d="M256.5 40.5h5c4.681.169 9.348.502 14 1h5a115.29 115.29 0 0 0 13 2c1.208.734 2.541 1.067 4 1 3.636.825 7.303 1.492 11 2a866.08 866.08 0 0 1-35 35c-17.003-.167-34.003 0-51 .5-14.672 2.51-28.006 8.01-40 16.5-12.63 9.275-22.963 20.608-31 34-35.8 34.294-71.466 69.461-107 105.5-.594.464-1.261.631-2 .5v-4c.61-.891.943-1.891 1-3l189-189c.709-.904 1.709-1.237 3-1h5a96.94 96.94 0 0 1 16-1z" opacity=".996"/><path d="M511.5 45.5v5l-80 79c-1.406-.473-2.073-1.473-2-3l82-81z" class="B D"/><path d="M208.5 46.5l-161 161c1.177-5.708 2.51-11.374 4-17 .667 0 1-.333 1-1l2-7c3.276-8.825 6.942-17.492 11-26 .667 0 1-.333 1-1l6-11c19-30.333 43.667-55 74-74l10-5c.667 0 1-.333 1-1a491.39 491.39 0 0 1 27-12 21.16 21.16 0 0 0 7-2c5.566-1.744 11.233-3.077 17-4z" class="E I"/><path fill="#d9d9da" d="M308.5 46.5h1c1.171.845 2.505 1.511 4 2a78.96 78.96 0 0 1 12 3c1.068.934 2.401 1.268 4 1 3.018 1.9 6.351 3.233 10 4 1.014 1.174 2.347 1.84 4 2l10 5c.891.61 1.891.943 3 1l10 6 3 2a59.51 59.51 0 0 0 9 5 6.54 6.54 0 0 0 3 3l9 6c.473 1.406 1.473 2.073 3 2v1l-40 39c-5.844-9.519-13.178-17.853-22-25-7.504-6.258-15.838-11.258-25-15-10.185-4.371-20.852-6.704-32-7h-1a866.08 866.08 0 0 0 35-35z" opacity=".996"/><path d="M511.5 65.5v5l-72 71c-.901-.79-1.568-1.79-2-3l74-73z" class="B C"/><path fill="#368cdc" d="M273.5 81.5h1l-65 65c-13.11-13.539-22.11-29.539-27-48 11.994-8.49 25.328-13.99 40-16.5 16.997-.5 33.997-.667 51-.5z"/><path fill="#368cdb" d="M274.5 81.5c11.148.296 21.815 2.629 32 7a2067.51 2067.51 0 0 1-76 77 71.12 71.12 0 0 0-12-8c-2.598-3.938-5.598-7.605-9-11a2986.21 2986.21 0 0 0 65-65z"/><path d="M511.5 85.5v5l-65 64c-.61-.891-.943-1.891-1-3 21.667-22.333 43.667-44.333 66-66z" class="B C"/><path fill="#368cdb" d="M306.5 88.5c9.162 3.742 17.496 8.742 25 15a2014.57 2014.57 0 0 1-75 76h-1c-8.847-3.869-17.18-8.535-25-14a2067.51 2067.51 0 0 0 76-77z"/><path d="M393.5 89.5a35.08 35.08 0 0 0 8 6 3 3 0 0 0 2 2 45.41 45.41 0 0 0 8 8 3 3 0 0 0 2 2 26 26 0 0 1 5 7c-.442.731-.609 1.731-.5 3l-51.5 51c-1.539-14.282-5.872-27.616-13-40l40-39z" class="E F"/><path d="M511.5 105.5v5l-58 57c-.901-.79-1.568-1.79-2-3l60-59z" class="B C"/><path fill="#388cdb" d="M331.5 103.5c8.822 7.147 16.156 15.481 22 25 7.128 12.384 11.461 25.718 13 40 .985 16.923 1.318 33.923 1 51-4.556 1.942-9.556 2.608-15 2-12.64.192-18.806-6.141-18.5-19-1.596-5.092-4.763-8.758-9.5-11a28.21 28.21 0 0 0-4-1.5c-7.993-.5-15.993-.666-24-.5-13.86-1.132-27.193-4.465-40-10a2014.57 2014.57 0 0 0 75-76z"/><path d="M511.5 125.5v5a1911.24 1911.24 0 0 0-52 52c-.845-1.171-1.511-2.505-2-4l54-53z" class="B C"/><path fill="#539ff2" d="M182.5 98.5c4.89 18.461 13.89 34.461 27 48 3.402 3.395 6.402 7.062 9 11-13.229 27.896-33.563 48.896-61 63-5.606.907-11.273 1.24-17 1-.167-19.003 0-38.003.5-57a120.15 120.15 0 0 1 10.5-32c8.037-13.392 18.37-24.725 31-34z"/><path d="M418.5 114.5l2 1c.667 1.333 1.667 2.333 3 3a27.68 27.68 0 0 0 6 8c-.073 1.527.594 2.527 2 3 1.765 3.209 3.765 6.209 6 9 .432 1.21 1.099 2.21 2 3 1.637 3.618 3.637 6.951 6 10 .057 1.109.39 2.109 1 3v1l-70 71a44.91 44.91 0 0 0-9-7c.318-17.077-.015-34.077-1-51l51.5-51c-.109-1.269.058-2.269.5-3z" class="G H"/><path d="M72.5 144.5l-6 11c-.667 0-1 .333-1 1l-66 65v-5l73-72z" class="B D"/><path d="M511.5 145.5v5l-48 47c.067-1.459-.266-2.792-1-4l49-48z" class="B C"/><path d="M446.5 155.5a58.37 58.37 0 0 1 5 9c.432 1.21 1.099 2.21 2 3a76.9 76.9 0 0 0 4 11l-73.5 73a.91.91 0 0 1-.5-1c.147-8.749-2.186-16.749-7-24l70-71z" class="E F"/><path fill="#d9d9da" d="M151.5 132.5a120.15 120.15 0 0 0-10.5 32c-.5 18.997-.667 37.997-.5 57h-1v-5c.167-11.005 0-22.005-.5-33l-95.5 96v-1l-1-4v-15l-1-4a84.02 84.02 0 0 0 1-16v-1c.739.131 1.406-.036 2-.5l107-105.5z" class="G"/><path d="M511.5 165.5v5l-44 43c.067-1.459-.266-2.792-1-4l45-44z" class="B C"/><path fill="#f2baaa" d="M218.5 157.5a71.12 71.12 0 0 1 12 8c7.82 5.465 16.153 10.131 25 14a3289.94 3289.94 0 0 1-96 97l-2-56c27.437-14.104 47.771-35.104 61-63z"/><path d="M54.5 182.5l-2 7c-.667 0-1 .333-1 1l-52 51v-5l55-54z" class="B C"/><path fill="#f2b9a9" d="M255.5 179.5h1c12.807 5.535 26.14 8.868 40 10a12.93 12.93 0 0 0-5 .5l-119 119.5c-2.644-3.273-4.811-6.94-6.5-11-1.77-5.479-3.603-10.813-5.5-16v-3c-1.915.284-3.581-.049-5-1 1.983.343 3.317-.324 4-2a3289.94 3289.94 0 0 0 96-97z"/><path d="M139.5 216.5l-89 88.5c-1.077.47-2.077.303-3-.5a85.43 85.43 0 0 0-2-8c.285-1.915-.049-3.581-1-5l-1-12 95.5-96c.5 10.995.667 21.995.5 33z" class="E F"/><path d="M457.5 178.5c.489 1.495 1.155 2.829 2 4 .797 3.723 1.797 7.39 3 11 .734 1.208 1.067 2.541 1 4v1l-179 179v-27c35.791-10.793 57.791-34.459 66-71 1.599.268 2.932-.066 4-1 16.271-2.605 25.937-11.939 29-28a.91.91 0 0 0 .5 1l73.5-73z" class="G H"/><path d="M511.5 185.5v5l-41 40-1-4 42-41z" class="B C"/><path fill="#f3baaa" d="M296.5 189.5c8.007-.166 16.007 0 24 .5a28.21 28.21 0 0 1 4 1.5l-137 137-7-6c-2.917-4.166-5.584-8.499-8-13l119-119.5a12.93 12.93 0 0 1 5-.5z"/><path fill="#f2b9aa" d="M324.5 191.5c4.737 2.242 7.904 5.908 9.5 11-.306 12.859 5.86 19.192 18.5 19v8l-71 71c-18.336-.167-36.67 0-55 .5 8.151 13.575 20.151 19.408 36 17.5-10.298 10.798-20.798 21.465-31.5 32-.464.594-.631 1.261-.5 2-.996.086-1.829-.248-2.5-1-.17 10.841-.67 21.508-1.5 32v-33a81.42 81.42 0 0 1-29-13l-10-9 137-137z"/><g class="C"><path d="M511.5 205.5v5l-40 39v-5l40-39zm-465 5l-1 6-46 45v-5l47-46z" class="B"/></g><path d="M463.5 198.5c1.618 3.388 2.618 7.054 3 11 .734 1.208 1.067 2.541 1 4a87.89 87.89 0 0 1 2 13l1 4v2l-151 151h-35v-6l179-179z" class="E G"/><path fill="#eda391" d="M157.5 220.5l2 56c-.683 1.676-2.017 2.343-4 2-14.8-2.632-23.967-11.298-27.5-26-1.5-12.346 2.333-22.68 11.5-31h1c5.727.24 11.394-.093 17-1z"/><path d="M511.5 225.5v5l-40 39v-4-1l40-39z" class="B C"/><path d="M470.5 232.5l1 12v5 15 1a5566.69 5566.69 0 0 0-126 125 72.19 72.19 0 0 0-26-7l151-151z" class="E G"/><path d="M42.5 234.5v4 1l-43 42v-5l43-42z" class="B C"/><path fill="#eda391" d="M367.5 219.5a44.91 44.91 0 0 1 9 7c4.814 7.251 7.147 15.251 7 24-3.063 16.061-12.729 25.395-29 28h-3a721.19 721.19 0 0 0 1-49v-8c5.444.608 10.444-.058 15-2z"/><path d="M210.5 239.5c9.712-.791 13.545 3.543 11.5 13-5.366 6.564-10.699 6.564-16 0-1.619-5.532-.119-9.866 4.5-13zm83 0c9.371-.466 13.205 3.867 11.5 13-5.462 6.589-10.795 6.589-16 0-1.621-5.577-.121-9.911 4.5-13z" fill="#212120"/><path d="M511.5 245.5v5l-43 42 1-6 42-41z" class="B C"/><path fill="#f2baaa" d="M352.5 229.5a721.19 721.19 0 0 1-1 49h3c-1.068.934-2.401 1.268-4 1-8.209 36.541-30.209 60.207-66 71v27 6c-.994-10.487-1.328-21.154-1-32-17.581 3.643-35.248 3.976-53 1-.131-.739.036-1.406.5-2 10.702-10.535 21.202-21.202 31.5-32 9.715-2.708 17.049-8.542 22-17.5-.948-.483-1.948-.649-3-.5l71-71z"/><path fill="#dad9d9" d="M139.5 216.5v5c-9.167 8.32-13 18.654-11.5 31 3.533 14.702 12.7 23.368 27.5 26 1.419.951 3.085 1.284 5 1v3l-86 86h-1c.073-1.527-.594-2.527-2-3l-5-10c-.432-1.21-1.099-2.21-2-3-1.159-3.651-2.826-6.985-5-10 .067-1.459-.266-2.792-1-4-1.609-3.554-2.942-7.221-4-11-.489-1.495-1.155-2.829-2-4-.797-3.723-1.797-7.39-3-11l-1-4-1-4c.923.803 1.923.97 3 .5l89-88.5z" class="I"/><path d="M41.5 255.5l1 4-43 42v-5l42-41z" class="B D"/><path d="M511.5 265.5v5l-49 48c.515-2.394 1.181-4.728 2-7l47-46z" class="B C"/><path d="M471.5 265.5v4l-2 17-1 6c.237 1.291-.096 2.291-1 3a4084.31 4084.31 0 0 0-107 108c-4.423-4.76-9.423-8.76-15-12v-1a5566.69 5566.69 0 0 1 126-125z" class="H I"/><path d="M42.5 274.5l1 4-44 43v-5l43-42z" class="B D"/><path d="M160.5 282.5c1.897 5.187 3.73 10.521 5.5 16 1.689 4.06 3.856 7.727 6.5 11 2.416 4.501 5.083 8.834 8 13l-80 80h-1a6.54 6.54 0 0 0-3-3 35.08 35.08 0 0 0-6-8 6.54 6.54 0 0 0-3-3c-1.647-2.973-3.647-5.64-6-8-.432-1.21-1.099-2.21-2-3a59.51 59.51 0 0 1-5-9l86-86z" class="E F"/><g class="C"><path d="M511.5 285.5v5l-62 61c1.061-3.122 2.395-6.122 4-9 .667 0 1-.333 1-1l57-56zm-467 6c.951 1.419 1.285 3.085 1 5l-46 45v-5a1433.5 1433.5 0 0 0 45-45z" class="B"/></g><path d="M467.5 295.5c-.683 5.397-1.683 10.731-3 16-.819 2.272-1.485 4.606-2 7l-8 23c-.667 0-1 .333-1 1-1.605 2.878-2.939 5.878-4 9-8.013 14.708-17.013 28.708-27 42-.667 0-1 .333-1 1-.667 0-1 .333-1 1-.667 0-1 .333-1 1-.667 0-1 .333-1 1-.667 0-1 .333-1 1-.667 0-1 .333-1 1-5 5.667-10.333 11-16 16-.667 0-1 .333-1 1-.667 0-1 .333-1 1-.667 0-1 .333-1 1-.667 0-1 .333-1 1-.667 0-1 .333-1 1-.667 0-1 .333-1 1a351.94 351.94 0 0 1-21 14c-1.035-12.061-5.368-22.728-13-32a4084.31 4084.31 0 0 1 107-108z" class="E F"/><path fill="#fdfbfb" d="M281.5 300.5c1.052-.149 2.052.017 3 .5-4.951 8.958-12.285 14.792-22 17.5-15.849 1.908-27.849-3.925-36-17.5 18.33-.5 36.664-.667 55-.5z"/><g class="C"><path d="M511.5 305.5v5l-201 201h-5l89-90c.667 0 1-.333 1-1 .667 0 1-.333 1-1 .667 0 1-.333 1-1 .667 0 1-.333 1-1 .667 0 1-.333 1-1 .667 0 1-.333 1-1 5.667-5 11-10.333 16-16 .667 0 1-.333 1-1 .667 0 1-.333 1-1 .667 0 1-.333 1-1 .667 0 1-.333 1-1 .667 0 1-.333 1-1 .667 0 1-.333 1-1l89-88zm-463 3l1 4-50 49v-5l49-48zm4 15c.845 1.171 1.511 2.505 2 4l-55 54v-5c18-17.333 35.667-35 53-53zm459 2v5l-181 181h-5l186-186z" class="B"/></g><path d="M180.5 322.5l7 6 10 9a2289.39 2289.39 0 0 1-81 80c-2.593-1.254-4.927-2.92-7-5-.667-1.333-1.667-2.333-3-3l-6-7 80-80z" class="E"/><path d="M58.5 338.5c.734 1.208 1.067 2.541 1 4l-60 59v-5l59-58z" class="B C"/><path d="M197.5 337.5a81.42 81.42 0 0 0 29 13v33c-14.004-.167-28.004 0-42 .5-26.048 6.879-42.048 23.379-48 49.5-1.501-1.252-3.168-2.252-5-3-.473-1.406-1.473-2.073-3-2-2.69-2.685-5.69-5.018-9-7a3 3 0 0 0-2-2l-1-2a2289.39 2289.39 0 0 0 81-80z" class="G H"/><g class="C"><path d="M511.5 345.5v5l-161 161h-5l166-166zm-447 7c.901.79 1.568 1.79 2 3l-67 66v-5l65-64z" class="B"/></g><path fill="#eea391" d="M230.5 352.5c17.752 2.976 35.419 2.643 53-1-.328 10.846.006 21.513 1 32-.433 27.44-14.099 38.773-41 34-12.535-7.737-18.202-19.07-17-34 .83-10.492 1.33-21.159 1.5-32 .671.752 1.504 1.086 2.5 1z"/><path d="M71.5 365.5c1.406.473 2.073 1.473 2 3l-74 73v-5l72-71z" class="B D"/><g class="C"><path d="M511.5 365.5v5l-141 141h-5l146-146zm-432 12c.901.79 1.568 1.79 2 3l-82 81v-5l80-79z" class="B"/></g><path fill="#fd1d6c" d="M226.5 383.5c-1.202 14.93 4.465 26.263 17 34l-44 43.5c1.566.608 2.9 1.442 4 2.5a20.69 20.69 0 0 1-5-1c-1.208-.734-2.541-1.067-4-1l-11-4-4-1c-3.04-1.846-6.373-3.179-10-4-1.014-1.174-2.347-1.84-4-2-2.984-2.159-6.317-3.825-10-5-.79-.901-1.79-1.568-3-2-2.839-1.92-5.839-3.587-9-5-1.014-1.174-2.347-1.84-4-2-.806-1.228-1.806-2.228-3-3 5.952-26.121 21.952-42.621 48-49.5 13.996-.5 27.996-.667 42-.5z"/><path fill="#fd1c6b" d="M284.5 383.5h35a72.19 72.19 0 0 1 26 7v1l-77 77.5c-7.993.5-15.993.666-24 .5h-12c-1.419-.951-3.085-1.284-5-1-4.314-.775-8.647-1.441-13-2-1.208-.734-2.541-1.067-4-1-2.394-.515-4.728-1.181-7-2-1.1-1.058-2.434-1.892-4-2.5l44-43.5c26.901 4.773 40.567-6.56 41-34z"/><path d="M511.5 385.5v5l-121 121h-5l126-126z" class="B C"/><path d="M87.5 388.5a6.54 6.54 0 0 1 3 3l-91 90v-5l88-88z" class="B D"/><path fill="#fd206c" d="M345.5 391.5c5.577 3.24 10.577 7.24 15 12 7.632 9.272 11.965 19.939 13 32a221.94 221.94 0 0 1-21 13c-3.122 1.061-6.122 2.395-9 4l-24 9c-2.567.221-4.901.888-7 2a390.15 390.15 0 0 0-19 4c-2.121-.175-4.121.159-6 1-5.313.598-10.646.931-16 1a19.22 19.22 0 0 1-6 1h-15-5c-.667 0-1-.333-1-1 8.007.166 16.007 0 24-.5l77-77.5z"/><g class="C"><path d="M96.5 399.5a6.54 6.54 0 0 1 3 3l-100 99v-5l97-97zm415 6v5l-101 101h-5l106-106zm-405 4c1.333.667 2.333 1.667 3 3l-99 99h-5l101-102zm11 10a3 3 0 0 1 2 2l-89 90h-5l92-92zm394 6v5l-81 81h-5l86-86z" class="B"/></g><path d="M128.5 428.5c1.527-.073 2.527.594 3 2l-81 81h-5l83-83z" class="B D"/><g class="C"><path d="M139.5 436.5c1.653.16 2.986.826 4 2l-73 73h-5l74-75zm13 7c1.21.432 2.21 1.099 3 2l-65 66h-5l67-68zm359 2v5c-20.667 20-41 40.333-61 61h-5c21.667-22.333 43.667-44.333 66-66zm-159 3l-62 63h-5l58-59c2.878-1.605 5.878-2.939 9-4zm-187 2c1.653.16 2.986.826 4 2-20 19.333-39.667 39-59 59h-5l60-61zm14 6l4 1-53 54h-5l54-55zm15 5c1.459-.067 2.792.266 4 1l-48 49h-5l49-50z" class="B"/></g><path d="M319.5 461.5l-49 50h-5l47-48c2.099-1.112 4.433-1.779 7-2z" class="B D"/><g class="C"><path d="M210.5 465.5c1.459-.067 2.792.266 4 1l-44 45h-5l45-46zm301 0v5a1188.23 1188.23 0 0 0-41 41h-5c15-15.667 30.333-31 46-46z" class="B"/></g><path d="M293.5 467.5l-43 44h-5l42-43c1.879-.841 3.879-1.175 6-1z" class="B D"/><g class="C"><path d="M227.5 468.5c1.915-.284 3.581.049 5 1a1248.76 1248.76 0 0 0-42 42h-5l42-43zm44 1l-41 42h-5l40-41a19.22 19.22 0 0 0 6-1zm-26 1h5l-40 41h-5l40-41zm266 15v5c-7.333 6.667-14.333 13.667-21 21h-5a477.94 477.94 0 0 1 26-26zm0 20v5c-.667 0-1 .333-1 1h-5c1.667-2.333 3.667-4.333 6-6z" class="B"/></g></svg>